<?xml version="1.0" encoding="UTF-8"?>
<!DOCTYPE svg PUBLIC "-//W3C//DTD SVG 1.1//EN" "http://www.w3.org/Graphics/SVG/1.1/DTD/svg11.dtd">
<!-- Creator: CorelDRAW -->
<svg xmlns="http://www.w3.org/2000/svg" xml:space="preserve" width="1.1104mm" height="1.1104mm" version="1.1" style="shape-rendering:geometricPrecision; text-rendering:geometricPrecision; image-rendering:optimizeQuality; fill-rule:evenodd; clip-rule:evenodd"
viewBox="0 0 0.6 0.6"
 xmlns:xlink="http://www.w3.org/1999/xlink"
 xmlns:xodm="http://www.corel.com/coreldraw/odm/2003">
 <defs>
  <style type="text/css">
   <![CDATA[
    .fil0 {fill:#0E6A00}
   ]]>
  </style>
 </defs>
 <g id="Layer_x0020_1">
  <metadata id="CorelCorpID_0Corel-Layer"/>
  <path class="fil0" d="M0.44 0.41l-0.06 0 0 -0.1c0,-0.03 -0.01,-0.04 -0.03,-0.04 -0.02,0 -0.04,0.02 -0.04,0.04l0 0.1 -0.06 0 0 -0.19 0.06 0 0 0.03c0,0 0.02,-0.03 0.06,-0.03 0.04,0 0.07,0.02 0.07,0.07l0 0.12zm-0.14 -0.41c0.17,0 0.3,0.13 0.3,0.3 0,0.17 -0.13,0.3 -0.3,0.3 -0.17,0 -0.3,-0.13 -0.3,-0.3 0,-0.17 0.13,-0.3 0.3,-0.3zm0 0.05c0.14,0 0.25,0.11 0.25,0.25 0,0.14 -0.11,0.25 -0.25,0.25 -0.14,0 -0.25,-0.11 -0.25,-0.25 0,-0.14 0.11,-0.25 0.25,-0.25zm-0.11 0.14c-0.02,0 -0.03,-0.02 -0.03,-0.03 0,-0.02 0.02,-0.03 0.03,-0.03 0.02,0 0.03,0.02 0.03,0.03 0,0.02 -0.02,0.03 -0.03,0.03zm-0.03 0.21l0.06 0 0 -0.19 -0.06 0 0 0.19z"/>
 </g>
</svg>
